<svg xmlns="http://www.w3.org/2000/svg" xmlns:xlink="http://www.w3.org/1999/xlink" width="1920" zoomAndPan="magnify" viewBox="0 0 1440 809.999993" height="1080" preserveAspectRatio="xMidYMid meet" version="1.0"><defs><g/><clipPath id="6dd926932b"><path d="M 0 175.5 L 1440 175.5 L 1440 634.5 L 0 634.5 Z M 0 175.5 " clip-rule="nonzero"/></clipPath><clipPath id="a4c4452ea6"><path d="M 0.71875 0.921875 L 1440 0.921875 L 1440 459.5 L 0.71875 459.5 Z M 0.71875 0.921875 " clip-rule="nonzero"/></clipPath><clipPath id="21df3bd9d9"><path d="M 51 6 L 471 6 L 471 459.5 L 51 459.5 Z M 51 6 " clip-rule="nonzero"/></clipPath><clipPath id="e2cee19a10"><path d="M 0.71875 10 L 103 10 L 103 135 L 0.71875 135 Z M 0.71875 10 " clip-rule="nonzero"/></clipPath><clipPath id="9a94b3c760"><rect x="0" width="960" y="0" height="174"/></clipPath><clipPath id="f13080d54d"><rect x="0" width="611" y="0" height="250"/></clipPath><clipPath id="0d007be04d"><rect x="0" width="1440" y="0" height="460"/></clipPath><clipPath id="84a8354ae5"><rect x="0" width="1440" y="0" height="460"/></clipPath></defs><g clip-path="url(#6dd926932b)"><g transform="matrix(1, 0, 0, 1, 0, 175)"><g clip-path="url(#84a8354ae5)"><g clip-path="url(#a4c4452ea6)"><g transform="matrix(1, 0, 0, 1, 0, 0.000000000000028422)"><g clip-path="url(#0d007be04d)"><g clip-path="url(#21df3bd9d9)"><path fill="#000000" d="M 253.664062 23 C 238.226562 41.375 238.960938 45.050781 258.074219 45.050781 C 271.304688 45.050781 277.917969 51.664062 272.773438 59.75 C 267.628906 67.835938 274.242188 74.449219 286.738281 74.449219 C 310.257812 74.449219 316.136719 99.441406 300.703125 139.128906 C 293.351562 158.976562 288.941406 158.242188 267.628906 133.984375 C 249.988281 114.140625 216.914062 103.851562 147.824219 98.707031 L 52.273438 91.355469 L 133.121094 106.054688 C 247.046875 127.371094 252.929688 129.574219 261.011719 163.386719 C 272.773438 208.222656 324.222656 157.503906 324.222656 101.644531 C 324.222656 55.339844 365.382812 42.847656 396.253906 79.597656 C 409.484375 95.765625 405.074219 105.320312 375.671875 124.429688 C 355.828125 137.660156 338.921875 158.976562 338.921875 170.734375 C 338.921875 213.367188 269.832031 265.550781 214.707031 265.550781 C 186.042969 265.550781 162.523438 258.9375 162.523438 250.851562 C 162.523438 236.886719 183.835938 230.269531 213.972656 235.414062 C 222.058594 236.152344 208.828125 220.714844 184.574219 200.871094 C 145.617188 167.796875 144.148438 163.386719 169.871094 161.914062 C 192.65625 160.445312 190.453125 156.769531 158.113281 145.011719 C 109.601562 127.371094 91.960938 138.394531 117.6875 168.53125 C 132.386719 186.90625 127.242188 191.316406 86.082031 196.460938 C 39.042969 202.339844 39.777344 202.339844 91.960938 201.605469 C 122.097656 200.871094 151.496094 205.28125 156.644531 211.160156 C 162.523438 217.039062 153.703125 221.449219 136.796875 221.449219 C 119.15625 221.449219 101.519531 228.066406 96.371094 236.152344 C 91.226562 244.234375 101.519531 250.851562 118.421875 250.851562 C 161.789062 250.851562 148.558594 282.457031 95.636719 308.179688 C 69.179688 321.410156 60.359375 331.699219 72.117188 336.109375 C 83.144531 339.785156 111.074219 328.761719 133.859375 311.121094 C 183.101562 275.105469 206.621094 272.164062 206.621094 300.832031 C 206.621094 312.589844 214.707031 325.085938 224.996094 328.761719 C 246.3125 336.847656 173.546875 368.449219 135.328125 368.449219 C 89.757812 368.449219 55.210938 404.464844 66.238281 439.746094 C 78.734375 480.171875 94.167969 479.4375 217.648438 435.335938 C 286.738281 410.347656 334.511719 401.527344 369.792969 407.40625 C 407.277344 413.285156 428.59375 408.875 446.96875 391.234375 C 482.246094 355.222656 477.101562 334.640625 435.207031 344.929688 C 386.699219 357.425781 374.9375 331.699219 416.097656 303.035156 C 444.027344 283.191406 445.496094 277.3125 427.121094 265.550781 C 390.371094 242.03125 357.296875 248.644531 327.164062 286.867188 C 303.644531 317 291.882812 320.675781 256.601562 311.121094 L 213.972656 300.097656 L 271.304688 272.902344 C 313.199219 253.054688 334.511719 229.535156 350.683594 189.109375 C 370.527344 139.867188 378.613281 133.25 421.976562 133.25 C 483.71875 133.25 482.246094 122.960938 413.15625 63.425781 C 347.742188 7.566406 281.59375 -9.339844 253.664062 23 Z M 384.492188 300.097656 C 361.707031 328.027344 380.082031 368.449219 414.628906 368.449219 C 431.53125 368.449219 439.617188 375.066406 433.738281 383.886719 C 427.859375 393.441406 402.132812 396.382812 370.527344 391.234375 C 333.042969 384.621094 284.53125 393.441406 207.359375 419.164062 C 133.859375 444.890625 93.433594 452.242188 83.144531 441.949219 C 59.621094 418.429688 89.023438 400.054688 195.597656 374.332031 C 256.601562 358.894531 305.847656 336.847656 325.691406 314.796875 C 361.707031 277.3125 414.628906 264.082031 384.492188 300.097656 Z M 384.492188 300.097656 " fill-opacity="1" fill-rule="nonzero"/></g><g transform="matrix(1, 0, 0, 1, 480, 65)"><g clip-path="url(#9a94b3c760)"><g clip-path="url(#e2cee19a10)"><g fill="#000000" fill-opacity="1"><g transform="translate(4.589923, 132.439558)"><g><path d="M 4.484375 -103.910156 C 4.484375 -106.851562 4.136719 -109.714844 3.441406 -112.5 C 2.8125 -115.003906 1.980469 -116.710938 0.9375 -117.632812 L -3.660156 -121.691406 L 54.179688 -121.691406 C 59.292969 -121.691406 64.421875 -120.847656 69.5625 -119.164062 C 74.734375 -117.46875 79.445312 -114.925781 83.707031 -111.539062 C 88.007812 -108.113281 91.449219 -103.882812 94.035156 -98.84375 C 96.636719 -93.769531 97.941406 -87.914062 97.941406 -81.269531 C 97.941406 -72.140625 95.433594 -64.519531 90.425781 -58.402344 C 85.46875 -52.347656 79.097656 -48.140625 71.304688 -45.777344 L 70.632812 -47.996094 L 72.804688 -48.816406 L 79.855469 -30.136719 C 83.257812 -21.136719 86.402344 -14.394531 89.285156 -9.914062 C 92.023438 -5.652344 94.355469 -3.039062 96.285156 -2.074219 L 95.25 2.320312 L 49.425781 2.320312 L 52.65625 -1.5 C 53.234375 -2.179688 53.566406 -3.253906 53.660156 -4.722656 C 53.761719 -6.34375 53.300781 -8.394531 52.285156 -10.867188 L 52.261719 -10.917969 L 32.453125 -65.886719 L 34.636719 -66.675781 L 36.957031 -66.675781 L 36.957031 -15.339844 C 36.957031 -12.476562 37.304688 -9.65625 38 -6.871094 C 38.625 -4.367188 39.457031 -2.660156 40.5 -1.738281 L 45.101562 2.320312 L -3.660156 2.320312 L 0.9375 -1.738281 C 1.980469 -2.65625 2.8125 -4.386719 3.4375 -6.925781 C 4.136719 -9.753906 4.484375 -12.597656 4.484375 -15.460938 Z M 9.125 -103.910156 L 9.125 -15.460938 C 9.125 -12.222656 8.730469 -9.007812 7.941406 -5.816406 C 7.085938 -2.335938 5.773438 0.183594 4.007812 1.738281 L 2.472656 0 L 2.472656 -2.320312 L 38.964844 -2.320312 L 38.964844 0 L 37.429688 1.738281 C 35.667969 0.183594 34.359375 -2.3125 33.5 -5.746094 C 32.710938 -8.898438 32.316406 -12.097656 32.316406 -15.339844 L 32.316406 -66.675781 L 36.820312 -67.460938 L 56.609375 -12.539062 L 54.429688 -11.75 L 56.574219 -12.632812 C 57.863281 -9.5 58.433594 -6.765625 58.289062 -4.433594 C 58.132812 -1.941406 57.4375 0.0351562 56.199219 1.5 L 54.429688 0 L 54.429688 -2.320312 L 95.25 -2.320312 L 95.25 0 L 94.210938 2.074219 C 91.523438 0.730469 88.578125 -2.429688 85.382812 -7.40625 C 82.324219 -12.160156 79.035156 -19.191406 75.515625 -28.496094 L 67.585938 -49.496094 L 69.960938 -50.214844 C 76.847656 -52.304688 82.476562 -56.015625 86.835938 -61.339844 C 91.144531 -66.601562 93.300781 -73.246094 93.300781 -81.269531 C 93.300781 -87.164062 92.167969 -92.316406 89.90625 -96.726562 C 87.625 -101.171875 84.597656 -104.898438 80.816406 -107.90625 C 76.992188 -110.949219 72.757812 -113.234375 68.117188 -114.753906 C 63.445312 -116.285156 58.800781 -117.050781 54.179688 -117.050781 L 2.472656 -117.050781 L 2.472656 -119.371094 L 4.007812 -121.109375 C 5.769531 -119.554688 7.082031 -117.058594 7.941406 -113.625 C 8.730469 -110.472656 9.125 -107.234375 9.125 -103.910156 Z M 34.636719 -68.996094 L 52.324219 -68.996094 C 55.417969 -68.996094 57.925781 -69.613281 59.855469 -70.851562 C 61.8125 -72.109375 63.273438 -73.6875 64.238281 -75.582031 C 65.222656 -77.519531 65.714844 -79.414062 65.714844 -81.269531 C 65.714844 -84.558594 64.613281 -87.449219 62.402344 -89.9375 C 60.265625 -92.34375 56.992188 -93.546875 52.574219 -93.546875 L 34.636719 -93.546875 L 34.636719 -95.867188 L 36.957031 -95.867188 L 36.957031 -66.675781 L 34.636719 -66.675781 Z M 32.316406 -64.355469 L 32.316406 -98.1875 L 52.574219 -98.1875 C 58.382812 -98.1875 62.816406 -96.464844 65.875 -93.015625 C 68.859375 -89.648438 70.355469 -85.734375 70.355469 -81.269531 C 70.355469 -78.671875 69.695312 -76.074219 68.371094 -73.476562 C 67.027344 -70.835938 65.023438 -68.660156 62.363281 -66.949219 C 59.671875 -65.21875 56.324219 -64.355469 52.324219 -64.355469 Z M 32.316406 -64.355469 "/></g></g></g></g><g fill="#000000" fill-opacity="1"><g transform="translate(97.725801, 132.439558)"><g><path d="M 45.644531 4.175781 C 36.890625 4.175781 29.175781 2.191406 22.503906 -1.777344 C 15.8125 -5.757812 10.613281 -11.347656 6.90625 -18.542969 C 3.230469 -25.679688 1.390625 -33.929688 1.390625 -43.296875 C 1.390625 -52.742188 3.230469 -61.015625 6.910156 -68.113281 C 10.617188 -75.265625 15.816406 -80.832031 22.503906 -84.8125 C 29.175781 -88.78125 36.890625 -90.765625 45.644531 -90.765625 C 54.480469 -90.765625 62.238281 -88.78125 68.910156 -84.8125 C 75.601562 -80.832031 80.796875 -75.265625 84.503906 -68.113281 C 88.183594 -61.015625 90.023438 -52.742188 90.023438 -43.296875 C 90.023438 -33.929688 88.183594 -25.679688 84.507812 -18.542969 C 80.800781 -11.347656 75.601562 -5.757812 68.910156 -1.777344 C 62.238281 2.191406 54.480469 4.175781 45.644531 4.175781 Z M 45.644531 -0.464844 C 53.632812 -0.464844 60.597656 -2.230469 66.539062 -5.765625 C 72.46875 -9.292969 77.082031 -14.257812 80.382812 -20.667969 C 83.71875 -27.140625 85.382812 -34.679688 85.382812 -43.296875 C 85.382812 -51.988281 83.71875 -59.550781 80.386719 -65.976562 C 77.085938 -72.347656 72.46875 -77.296875 66.539062 -80.824219 C 60.597656 -84.359375 53.632812 -86.125 45.644531 -86.125 C 37.742188 -86.125 30.816406 -84.359375 24.875 -80.824219 C 18.945312 -77.296875 14.328125 -72.347656 11.027344 -65.976562 C 7.695312 -59.550781 6.03125 -51.988281 6.03125 -43.296875 C 6.03125 -34.679688 7.695312 -27.140625 11.03125 -20.667969 C 14.332031 -14.257812 18.945312 -9.292969 24.875 -5.765625 C 30.816406 -2.230469 37.742188 -0.464844 45.644531 -0.464844 Z M 32.007812 -43.171875 C 32.007812 -37.15625 33.285156 -32.371094 35.839844 -28.816406 C 38.222656 -25.5 41.492188 -23.84375 45.644531 -23.84375 C 49.808594 -23.84375 53.101562 -25.503906 55.523438 -28.828125 C 58.113281 -32.378906 59.40625 -37.160156 59.40625 -43.171875 C 59.40625 -49.265625 58.113281 -54.085938 55.523438 -57.636719 C 53.101562 -60.960938 49.808594 -62.625 45.644531 -62.625 C 41.492188 -62.625 38.222656 -60.964844 35.839844 -57.652344 C 33.285156 -54.097656 32.007812 -49.269531 32.007812 -43.171875 Z M 27.367188 -43.171875 C 27.367188 -50.265625 28.9375 -55.996094 32.070312 -60.359375 C 35.378906 -64.960938 39.90625 -67.261719 45.644531 -67.261719 C 51.378906 -67.261719 55.921875 -64.964844 59.269531 -60.371094 C 62.453125 -56.007812 64.046875 -50.273438 64.046875 -43.171875 C 64.046875 -36.152344 62.453125 -30.460938 59.269531 -26.09375 C 55.921875 -21.5 51.378906 -19.203125 45.644531 -19.203125 C 39.90625 -19.203125 35.378906 -21.503906 32.070312 -26.109375 C 28.9375 -30.46875 27.367188 -36.160156 27.367188 -43.171875 Z M 27.367188 -43.171875 "/></g></g></g><g fill="#000000" fill-opacity="1"><g transform="translate(189.130609, 132.439558)"><g><path d="M -0.539062 -75.835938 C 3.566406 -80.730469 8.507812 -84.445312 14.28125 -86.980469 C 20.023438 -89.503906 26.558594 -90.765625 33.894531 -90.765625 C 40.050781 -90.765625 45.9375 -89.953125 51.550781 -88.324219 C 57.21875 -86.679688 62.269531 -84.207031 66.699219 -80.90625 C 71.179688 -77.566406 74.738281 -73.460938 77.375 -68.582031 C 80.035156 -63.660156 81.363281 -57.953125 81.363281 -51.460938 L 81.363281 -26.59375 C 81.363281 -24.421875 81.558594 -22.25 81.945312 -20.074219 C 82.28125 -18.199219 82.984375 -16.660156 84.054688 -15.460938 C 84.953125 -14.453125 86.542969 -13.949219 88.816406 -13.949219 L 91.136719 -13.949219 L 91.136719 -9.597656 L 89.882812 -8.949219 C 87.515625 -7.722656 85.023438 -6.375 82.410156 -4.90625 C 79.757812 -3.414062 77.210938 -2.007812 74.769531 -0.683594 C 72.296875 0.660156 70.109375 1.773438 68.210938 2.660156 C 66.046875 3.667969 64.421875 4.175781 63.335938 4.175781 C 60.546875 4.175781 58.203125 3.03125 56.296875 0.742188 C 54.644531 -1.238281 53.402344 -3.6875 52.570312 -6.597656 C 51.765625 -9.40625 51.367188 -12.152344 51.367188 -14.84375 L 51.367188 -27.957031 L 53.6875 -27.957031 L 55.644531 -26.714844 C 54.074219 -24.230469 52.316406 -21.5 50.371094 -18.523438 C 48.4375 -15.566406 46.589844 -12.6875 44.824219 -9.894531 C 43.042969 -7.082031 41.53125 -4.722656 40.289062 -2.816406 L 38.347656 -4.082031 L 40.351562 -2.914062 C 39.574219 -1.582031 37.777344 -0.0703125 34.964844 1.617188 C 32.121094 3.324219 28.796875 4.175781 24.988281 4.175781 C 19.421875 4.175781 14.839844 3.023438 11.242188 0.714844 C 7.621094 -1.605469 4.996094 -4.699219 3.367188 -8.5625 C 1.800781 -12.273438 1.019531 -16.386719 1.019531 -20.90625 C 1.019531 -25.664062 2.121094 -30.09375 4.328125 -34.191406 C 6.492188 -38.210938 9.425781 -41.738281 13.125 -44.777344 C 16.789062 -47.789062 20.929688 -50.144531 25.546875 -51.84375 C 30.175781 -53.546875 35.019531 -54.398438 40.078125 -54.398438 C 45.28125 -54.398438 49.929688 -53.460938 54.03125 -51.589844 L 53.066406 -49.480469 L 50.800781 -48.980469 C 49.84375 -53.328125 47.902344 -56.710938 44.972656 -59.136719 C 42.058594 -61.542969 38.449219 -62.746094 34.140625 -62.746094 C 30.035156 -62.746094 26.382812 -61.996094 23.191406 -60.492188 C 20.085938 -59.03125 17.496094 -56.710938 15.425781 -53.535156 L 13.238281 -50.175781 L 11.417969 -53.746094 C 9.472656 -57.550781 7.578125 -60.882812 5.722656 -63.742188 C 3.847656 -66.636719 1.726562 -69.714844 -0.640625 -72.984375 L -1.703125 -74.449219 Z M 3.015625 -72.851562 L 1.238281 -74.34375 L 3.113281 -75.707031 C 5.53125 -72.375 7.699219 -69.226562 9.617188 -66.265625 C 11.554688 -63.273438 13.535156 -59.800781 15.550781 -55.855469 L 13.484375 -54.800781 L 11.539062 -56.066406 C 14.089844 -59.980469 17.3125 -62.855469 21.214844 -64.691406 C 25.035156 -66.488281 29.34375 -67.386719 34.140625 -67.386719 C 39.5625 -67.386719 44.160156 -65.828125 47.929688 -62.710938 C 51.679688 -59.609375 54.144531 -55.363281 55.332031 -49.980469 L 56.332031 -45.441406 L 52.105469 -47.371094 C 48.617188 -48.960938 44.609375 -49.757812 40.078125 -49.757812 C 35.570312 -49.757812 31.261719 -49 27.148438 -47.488281 C 23.023438 -45.972656 19.332031 -43.871094 16.070312 -41.195312 C 12.839844 -38.542969 10.289062 -35.472656 8.414062 -31.988281 C 6.578125 -28.582031 5.660156 -24.886719 5.660156 -20.90625 C 5.660156 -17.011719 6.320312 -13.5 7.640625 -10.363281 C 8.898438 -7.382812 10.933594 -4.992188 13.746094 -3.191406 C 16.582031 -1.371094 20.328125 -0.464844 24.988281 -0.464844 C 27.941406 -0.464844 30.46875 -1.097656 32.578125 -2.359375 C 34.710938 -3.640625 35.964844 -4.605469 36.34375 -5.25 L 36.371094 -5.300781 L 36.402344 -5.347656 C 37.636719 -7.238281 39.132812 -9.578125 40.902344 -12.371094 C 42.679688 -15.1875 44.542969 -18.082031 46.488281 -21.058594 C 48.417969 -24.019531 50.164062 -26.734375 51.726562 -29.199219 L 56.003906 -35.953125 L 56.003906 -14.84375 C 56.003906 -12.585938 56.347656 -10.261719 57.03125 -7.875 C 57.683594 -5.589844 58.625 -3.707031 59.859375 -2.226562 C 60.839844 -1.050781 61.996094 -0.464844 63.335938 -0.464844 C 63.734375 -0.464844 64.707031 -0.824219 66.25 -1.546875 C 68.0625 -2.390625 70.164062 -3.464844 72.558594 -4.761719 C 74.980469 -6.074219 77.503906 -7.46875 80.132812 -8.949219 C 82.796875 -10.445312 85.335938 -11.820312 87.75 -13.070312 L 88.816406 -11.007812 L 86.496094 -11.007812 L 86.496094 -11.628906 L 88.816406 -11.628906 L 88.816406 -9.308594 C 85.15625 -9.308594 82.414062 -10.328125 80.589844 -12.371094 C 78.941406 -14.222656 77.867188 -16.519531 77.378906 -19.261719 C 76.941406 -21.703125 76.726562 -24.148438 76.726562 -26.59375 L 76.726562 -51.460938 C 76.726562 -57.171875 75.582031 -62.144531 73.292969 -66.375 C 70.980469 -70.652344 67.859375 -74.253906 63.929688 -77.183594 C 59.945312 -80.152344 55.390625 -82.378906 50.257812 -83.867188 C 45.066406 -85.375 39.613281 -86.125 33.894531 -86.125 C 27.210938 -86.125 21.292969 -84.996094 16.148438 -82.734375 C 11.035156 -80.488281 6.65625 -77.195312 3.015625 -72.851562 Z M 32.007812 -30.429688 C 32.007812 -28.972656 32.507812 -27.585938 33.511719 -26.269531 C 34.367188 -25.148438 36.0625 -24.585938 38.59375 -24.585938 C 41.007812 -24.585938 43.355469 -25.359375 45.644531 -26.910156 C 48.03125 -28.523438 50.042969 -30.746094 51.679688 -33.570312 L 53.6875 -32.410156 L 51.367188 -32.410156 L 51.367188 -43.417969 C 51.367188 -44.03125 51.347656 -44.667969 51.308594 -45.324219 C 51.269531 -45.960938 51.214844 -46.535156 51.140625 -47.050781 L 53.4375 -47.378906 L 52.3125 -45.347656 C 51.753906 -45.660156 51.148438 -45.890625 50.488281 -46.046875 C 49.800781 -46.210938 49.050781 -46.292969 48.242188 -46.292969 C 45.269531 -46.292969 42.582031 -45.445312 40.179688 -43.75 C 37.648438 -41.964844 35.640625 -39.8125 34.160156 -37.292969 C 32.726562 -34.855469 32.007812 -32.566406 32.007812 -30.429688 Z M 27.367188 -30.429688 C 27.367188 -33.40625 28.300781 -36.480469 30.164062 -39.648438 C 31.980469 -42.738281 34.429688 -45.371094 37.503906 -47.539062 C 40.710938 -49.804688 44.289062 -50.933594 48.242188 -50.933594 C 49.414062 -50.933594 50.519531 -50.808594 51.5625 -50.5625 C 52.636719 -50.304688 53.636719 -49.921875 54.566406 -49.40625 L 55.570312 -48.84375 L 55.734375 -47.707031 C 55.828125 -47.0625 55.894531 -46.363281 55.941406 -45.597656 C 55.984375 -44.851562 56.003906 -44.125 56.003906 -43.417969 L 56.003906 -31.785156 L 55.695312 -31.246094 C 53.703125 -27.804688 51.21875 -25.078125 48.246094 -23.066406 C 45.171875 -20.988281 41.957031 -19.945312 38.59375 -19.945312 C 34.53125 -19.945312 31.605469 -21.117188 29.820312 -23.457031 C 28.1875 -25.605469 27.367188 -27.929688 27.367188 -30.429688 Z M 27.367188 -30.429688 "/></g></g></g><g fill="#000000" fill-opacity="1"><g transform="translate(274.227369, 132.439558)"><g><path d="M 31.542969 4.175781 C 26.148438 4.175781 21.488281 2.652344 17.566406 -0.394531 C 13.789062 -3.328125 10.6875 -7.175781 8.261719 -11.9375 C 5.898438 -16.578125 4.160156 -21.640625 3.046875 -27.125 C 1.941406 -32.554688 1.390625 -37.945312 1.390625 -43.296875 C 1.390625 -48.84375 2.074219 -54.371094 3.4375 -59.871094 C 4.820312 -65.445312 7.027344 -70.550781 10.058594 -75.179688 C 13.148438 -79.90625 17.1875 -83.683594 22.175781 -86.503906 C 27.1875 -89.34375 33.238281 -90.765625 40.328125 -90.765625 C 43.65625 -90.765625 46.609375 -90.285156 49.179688 -89.320312 C 51.707031 -88.371094 53.972656 -87.125 55.96875 -85.582031 L 54.550781 -83.746094 L 52.230469 -83.746094 L 52.230469 -93.394531 C 52.230469 -94.234375 52.152344 -95.570312 51.992188 -97.398438 C 51.847656 -99.09375 51.433594 -100.878906 50.761719 -102.75 C 50.152344 -104.449219 49.164062 -105.90625 47.804688 -107.132812 C 46.597656 -108.21875 44.804688 -108.761719 42.429688 -108.761719 L 40.109375 -108.761719 L 40.109375 -113.898438 L 42.304688 -114.019531 C 45.191406 -114.175781 48.308594 -114.703125 51.65625 -115.609375 C 55.0625 -116.53125 58.425781 -117.695312 61.753906 -119.097656 C 65.125 -120.519531 68.292969 -121.980469 71.253906 -123.480469 C 74.214844 -124.980469 76.703125 -126.335938 78.71875 -127.546875 L 82.230469 -129.652344 L 82.230469 -15.214844 C 82.230469 -12.355469 82.578125 -9.558594 83.273438 -6.816406 C 83.898438 -4.351562 84.730469 -2.660156 85.773438 -1.738281 L 90.375 2.320312 L 52.230469 2.320312 L 52.230469 -27.707031 L 54.550781 -27.707031 L 56.714844 -26.867188 L 46.886719 -1.671875 L 46.542969 -1.328125 C 44.824219 0.390625 42.679688 1.738281 40.101562 2.722656 C 37.566406 3.691406 34.714844 4.175781 31.542969 4.175781 Z M 31.542969 -0.464844 C 34.144531 -0.464844 36.445312 -0.847656 38.449219 -1.609375 C 40.40625 -2.359375 42.011719 -3.359375 43.261719 -4.609375 L 44.902344 -2.96875 L 42.742188 -3.8125 L 52.390625 -28.550781 L 56.871094 -27.707031 L 56.871094 0 L 54.550781 0 L 54.550781 -2.320312 L 84.238281 -2.320312 L 84.238281 0 L 82.707031 1.738281 C 80.945312 0.1875 79.636719 -2.285156 78.773438 -5.675781 C 77.984375 -8.792969 77.589844 -11.972656 77.589844 -15.214844 L 77.589844 -125.554688 L 79.910156 -125.554688 L 81.105469 -123.566406 C 78.996094 -122.300781 76.410156 -120.894531 73.351562 -119.34375 C 70.292969 -117.792969 67.027344 -116.285156 63.554688 -114.820312 C 60.035156 -113.335938 56.476562 -112.109375 52.871094 -111.132812 C 49.207031 -110.140625 45.769531 -109.558594 42.554688 -109.386719 L 42.429688 -111.703125 L 44.75 -111.703125 L 44.75 -111.082031 L 42.429688 -111.082031 L 42.429688 -113.402344 C 45.992188 -113.402344 48.816406 -112.460938 50.910156 -110.582031 C 52.847656 -108.835938 54.253906 -106.75 55.125 -104.324219 C 55.9375 -102.070312 56.433594 -99.898438 56.617188 -97.800781 C 56.785156 -95.835938 56.871094 -94.367188 56.871094 -93.394531 L 56.871094 -79.019531 L 53.132812 -81.910156 C 51.503906 -83.167969 49.644531 -84.191406 47.550781 -84.976562 C 45.507812 -85.742188 43.097656 -86.125 40.328125 -86.125 C 34.054688 -86.125 28.765625 -84.90625 24.460938 -82.46875 C 20.128906 -80.015625 16.621094 -76.738281 13.941406 -72.640625 C 11.199219 -68.449219 9.199219 -63.820312 7.941406 -58.757812 C 6.667969 -53.621094 6.03125 -48.464844 6.03125 -43.296875 C 6.03125 -38.253906 6.550781 -33.171875 7.59375 -28.046875 C 8.621094 -22.976562 10.222656 -18.308594 12.394531 -14.042969 C 14.507812 -9.894531 17.179688 -6.566406 20.410156 -4.058594 C 23.496094 -1.664062 27.207031 -0.464844 31.542969 -0.464844 Z M 31.140625 -41.070312 C 31.140625 -35.023438 32 -30.5625 33.71875 -27.695312 C 35.207031 -25.210938 37.449219 -23.96875 40.449219 -23.96875 C 43.398438 -23.96875 45.765625 -24.777344 47.550781 -26.394531 C 49.5625 -28.222656 51.203125 -30.40625 52.476562 -32.953125 L 54.550781 -31.914062 L 52.230469 -31.914062 L 52.230469 -65.683594 L 54.550781 -65.683594 L 53.902344 -63.457031 C 52.136719 -63.972656 50.167969 -64.230469 47.996094 -64.230469 C 44.367188 -64.230469 41.351562 -63.183594 38.941406 -61.089844 C 36.394531 -58.875 34.464844 -56.011719 33.160156 -52.503906 C 31.816406 -48.890625 31.140625 -45.078125 31.140625 -41.070312 Z M 26.503906 -41.070312 C 26.503906 -45.636719 27.273438 -49.988281 28.8125 -54.125 C 30.394531 -58.371094 32.753906 -61.859375 35.898438 -64.589844 C 39.179688 -67.445312 43.210938 -68.871094 47.996094 -68.871094 C 50.609375 -68.871094 53.011719 -68.550781 55.203125 -67.910156 L 56.871094 -67.425781 L 56.871094 -31.367188 L 56.625 -30.878906 C 55.09375 -27.816406 53.109375 -25.175781 50.667969 -22.960938 C 48 -20.539062 44.59375 -19.328125 40.449219 -19.328125 C 35.699219 -19.328125 32.128906 -21.324219 29.738281 -25.3125 C 27.582031 -28.914062 26.503906 -34.167969 26.503906 -41.070312 Z M 26.503906 -41.070312 "/></g></g></g><g fill="#000000" fill-opacity="1"><g transform="translate(360.932051, 132.439558)"><g/></g></g><g fill="#000000" fill-opacity="1"><g transform="translate(398.038192, 132.439558)"><g><path d="M 4.484375 -103.910156 C 4.484375 -106.851562 4.136719 -109.714844 3.441406 -112.5 C 2.8125 -115.003906 1.980469 -116.710938 0.9375 -117.632812 L -3.660156 -121.691406 L 54.179688 -121.691406 C 59.292969 -121.691406 64.421875 -120.847656 69.5625 -119.164062 C 74.734375 -117.46875 79.445312 -114.925781 83.707031 -111.539062 C 88.007812 -108.113281 91.449219 -103.882812 94.035156 -98.84375 C 96.636719 -93.769531 97.941406 -87.914062 97.941406 -81.269531 C 97.941406 -72.140625 95.433594 -64.519531 90.425781 -58.402344 C 85.46875 -52.347656 79.097656 -48.140625 71.304688 -45.777344 L 70.632812 -47.996094 L 72.804688 -48.816406 L 79.855469 -30.136719 C 83.257812 -21.136719 86.402344 -14.394531 89.285156 -9.914062 C 92.023438 -5.652344 94.355469 -3.039062 96.285156 -2.074219 L 95.25 2.320312 L 49.425781 2.320312 L 52.65625 -1.5 C 53.234375 -2.179688 53.566406 -3.253906 53.660156 -4.722656 C 53.761719 -6.34375 53.300781 -8.394531 52.285156 -10.867188 L 52.261719 -10.917969 L 32.453125 -65.886719 L 34.636719 -66.675781 L 36.957031 -66.675781 L 36.957031 -15.339844 C 36.957031 -12.476562 37.304688 -9.65625 38 -6.871094 C 38.625 -4.367188 39.457031 -2.660156 40.5 -1.738281 L 45.101562 2.320312 L -3.660156 2.320312 L 0.9375 -1.738281 C 1.980469 -2.65625 2.8125 -4.386719 3.4375 -6.925781 C 4.136719 -9.753906 4.484375 -12.597656 4.484375 -15.460938 Z M 9.125 -103.910156 L 9.125 -15.460938 C 9.125 -12.222656 8.730469 -9.007812 7.941406 -5.816406 C 7.085938 -2.335938 5.773438 0.183594 4.007812 1.738281 L 2.472656 0 L 2.472656 -2.320312 L 38.964844 -2.320312 L 38.964844 0 L 37.429688 1.738281 C 35.667969 0.183594 34.359375 -2.3125 33.5 -5.746094 C 32.710938 -8.898438 32.316406 -12.097656 32.316406 -15.339844 L 32.316406 -66.675781 L 36.820312 -67.460938 L 56.609375 -12.539062 L 54.429688 -11.75 L 56.574219 -12.632812 C 57.863281 -9.5 58.433594 -6.765625 58.289062 -4.433594 C 58.132812 -1.941406 57.4375 0.0351562 56.199219 1.5 L 54.429688 0 L 54.429688 -2.320312 L 95.25 -2.320312 L 95.25 0 L 94.210938 2.074219 C 91.523438 0.730469 88.578125 -2.429688 85.382812 -7.40625 C 82.324219 -12.160156 79.035156 -19.191406 75.515625 -28.496094 L 67.585938 -49.496094 L 69.960938 -50.214844 C 76.847656 -52.304688 82.476562 -56.015625 86.835938 -61.339844 C 91.144531 -66.601562 93.300781 -73.246094 93.300781 -81.269531 C 93.300781 -87.164062 92.167969 -92.316406 89.90625 -96.726562 C 87.625 -101.171875 84.597656 -104.898438 80.816406 -107.90625 C 76.992188 -110.949219 72.757812 -113.234375 68.117188 -114.753906 C 63.445312 -116.285156 58.800781 -117.050781 54.179688 -117.050781 L 2.472656 -117.050781 L 2.472656 -119.371094 L 4.007812 -121.109375 C 5.769531 -119.554688 7.082031 -117.058594 7.941406 -113.625 C 8.730469 -110.472656 9.125 -107.234375 9.125 -103.910156 Z M 34.636719 -68.996094 L 52.324219 -68.996094 C 55.417969 -68.996094 57.925781 -69.613281 59.855469 -70.851562 C 61.8125 -72.109375 63.273438 -73.6875 64.238281 -75.582031 C 65.222656 -77.519531 65.714844 -79.414062 65.714844 -81.269531 C 65.714844 -84.558594 64.613281 -87.449219 62.402344 -89.9375 C 60.265625 -92.34375 56.992188 -93.546875 52.574219 -93.546875 L 34.636719 -93.546875 L 34.636719 -95.867188 L 36.957031 -95.867188 L 36.957031 -66.675781 L 34.636719 -66.675781 Z M 32.316406 -64.355469 L 32.316406 -98.1875 L 52.574219 -98.1875 C 58.382812 -98.1875 62.816406 -96.464844 65.875 -93.015625 C 68.859375 -89.648438 70.355469 -85.734375 70.355469 -81.269531 C 70.355469 -78.671875 69.695312 -76.074219 68.371094 -73.476562 C 67.027344 -70.835938 65.023438 -68.660156 62.363281 -66.949219 C 59.671875 -65.21875 56.324219 -64.355469 52.324219 -64.355469 Z M 32.316406 -64.355469 "/></g></g></g><g fill="#000000" fill-opacity="1"><g transform="translate(501.070147, 132.439558)"><g><path d="M 3.617188 -56.285156 C 3.617188 -57.125 3.539062 -58.457031 3.378906 -60.289062 C 3.230469 -61.984375 2.820312 -63.769531 2.148438 -65.640625 C 1.535156 -67.335938 0.550781 -68.796875 -0.808594 -70.023438 C -2.019531 -71.109375 -3.808594 -71.652344 -6.183594 -71.652344 L -8.503906 -71.652344 L -8.503906 -76.789062 L -6.308594 -76.90625 C -3.421875 -77.0625 -0.304688 -77.59375 3.042969 -78.5 C 6.449219 -79.421875 9.8125 -80.582031 13.140625 -81.984375 C 16.511719 -83.40625 19.679688 -84.871094 22.640625 -86.371094 C 25.601562 -87.871094 28.089844 -89.226562 30.101562 -90.433594 L 33.617188 -92.542969 L 33.617188 -32.039062 C 33.617188 -28.703125 34.429688 -26.1875 36.0625 -24.492188 C 37.667969 -22.824219 39.664062 -21.988281 42.058594 -21.988281 C 45.210938 -21.988281 47.585938 -22.945312 49.183594 -24.863281 C 51.054688 -27.109375 52.394531 -29.492188 53.210938 -32.011719 L 55.417969 -31.296875 L 53.097656 -31.296875 L 53.097656 -56.285156 C 53.097656 -57.125 53.019531 -58.457031 52.859375 -60.289062 C 52.710938 -61.984375 52.300781 -63.769531 51.628906 -65.640625 C 51.015625 -67.335938 50.03125 -68.796875 48.671875 -70.023438 C 47.460938 -71.109375 45.671875 -71.652344 43.296875 -71.652344 L 40.976562 -71.652344 L 40.976562 -76.789062 L 43.171875 -76.90625 C 46.058594 -77.0625 49.175781 -77.59375 52.523438 -78.5 C 55.925781 -79.421875 59.292969 -80.582031 62.617188 -81.984375 C 65.992188 -83.40625 69.160156 -84.871094 72.121094 -86.371094 C 75.082031 -87.871094 77.570312 -89.226562 79.582031 -90.433594 L 83.097656 -92.542969 L 83.097656 -26.59375 C 83.097656 -24.421875 83.289062 -22.25 83.679688 -20.074219 C 84.015625 -18.199219 84.714844 -16.660156 85.785156 -15.460938 C 86.683594 -14.453125 88.273438 -13.949219 90.546875 -13.949219 L 92.867188 -13.949219 L 92.867188 -9.597656 L 91.613281 -8.949219 C 89.246094 -7.722656 86.753906 -6.375 84.140625 -4.90625 C 81.492188 -3.414062 78.945312 -2.007812 76.5 -0.683594 C 74.027344 0.660156 71.839844 1.773438 69.945312 2.660156 C 67.777344 3.667969 66.152344 4.175781 65.066406 4.175781 C 62.28125 4.175781 59.933594 3.03125 58.027344 0.742188 C 56.375 -1.238281 55.132812 -3.6875 54.300781 -6.597656 C 53.5 -9.40625 53.097656 -12.152344 53.097656 -14.84375 L 53.097656 -26.59375 L 55.417969 -26.59375 L 57.492188 -25.558594 L 44.5625 0.296875 L 43.960938 0.648438 C 42.253906 1.636719 40.375 2.464844 38.324219 3.132812 C 36.195312 3.828125 33.851562 4.175781 31.296875 4.175781 C 22.816406 4.175781 16.082031 1.65625 11.09375 -3.378906 C 6.109375 -8.40625 3.617188 -15.898438 3.617188 -25.851562 Z M 8.257812 -56.285156 L 8.257812 -25.851562 C 8.257812 -17.171875 10.300781 -10.765625 14.390625 -6.644531 C 18.46875 -2.523438 24.105469 -0.464844 31.296875 -0.464844 C 33.359375 -0.464844 35.222656 -0.734375 36.886719 -1.277344 C 38.628906 -1.84375 40.210938 -2.542969 41.636719 -3.367188 L 42.800781 -1.359375 L 40.726562 -2.398438 L 53.34375 -27.632812 L 57.738281 -26.59375 L 57.738281 -14.84375 C 57.738281 -12.585938 58.078125 -10.261719 58.761719 -7.875 C 59.414062 -5.589844 60.355469 -3.707031 61.589844 -2.226562 C 62.570312 -1.050781 63.730469 -0.464844 65.066406 -0.464844 C 65.464844 -0.464844 66.4375 -0.824219 67.980469 -1.546875 C 69.796875 -2.390625 71.898438 -3.464844 74.289062 -4.761719 C 76.710938 -6.074219 79.238281 -7.46875 81.867188 -8.949219 C 84.527344 -10.445312 87.066406 -11.820312 89.484375 -13.070312 L 90.546875 -11.007812 L 88.230469 -11.007812 L 88.230469 -11.628906 L 90.546875 -11.628906 L 90.546875 -9.308594 C 86.886719 -9.308594 84.144531 -10.328125 82.324219 -12.371094 C 80.671875 -14.222656 79.601562 -16.519531 79.113281 -19.261719 C 78.675781 -21.703125 78.457031 -24.148438 78.457031 -26.59375 L 78.457031 -88.445312 L 80.777344 -88.445312 L 81.96875 -86.457031 C 79.859375 -85.191406 77.277344 -83.785156 74.21875 -82.234375 C 71.160156 -80.683594 67.894531 -79.175781 64.421875 -77.710938 C 60.902344 -76.226562 57.339844 -74.996094 53.734375 -74.023438 C 50.074219 -73.03125 46.632812 -72.449219 43.421875 -72.273438 L 43.296875 -74.589844 L 45.613281 -74.589844 L 45.613281 -73.972656 L 43.296875 -73.972656 L 43.296875 -76.292969 C 46.855469 -76.292969 49.683594 -75.351562 51.773438 -73.46875 C 53.710938 -71.726562 55.117188 -69.640625 55.992188 -67.210938 C 56.800781 -64.960938 57.300781 -62.789062 57.480469 -60.691406 C 57.652344 -58.726562 57.738281 -57.257812 57.738281 -56.285156 L 57.738281 -30.929688 L 57.625 -30.582031 C 56.625 -27.492188 55 -24.597656 52.746094 -21.894531 C 50.222656 -18.863281 46.660156 -17.347656 42.058594 -17.347656 C 38.347656 -17.347656 35.234375 -18.65625 32.714844 -21.277344 C 30.222656 -23.871094 28.976562 -27.457031 28.976562 -32.039062 L 28.976562 -88.445312 L 31.296875 -88.445312 L 32.488281 -86.457031 C 30.378906 -85.191406 27.796875 -83.785156 24.738281 -82.234375 C 21.679688 -80.683594 18.414062 -79.175781 14.941406 -77.710938 C 11.421875 -76.226562 7.859375 -74.996094 4.253906 -74.023438 C 0.59375 -73.03125 -2.84375 -72.449219 -6.058594 -72.273438 L -6.183594 -74.589844 L -3.867188 -74.589844 L -3.867188 -73.972656 L -6.183594 -73.972656 L -6.183594 -76.292969 C -2.621094 -76.292969 0.203125 -75.351562 2.292969 -73.46875 C 4.230469 -71.726562 5.636719 -69.640625 6.511719 -67.210938 C 7.324219 -64.960938 7.820312 -62.789062 8 -60.691406 C 8.171875 -58.726562 8.257812 -57.257812 8.257812 -56.285156 Z M 8.257812 -56.285156 "/></g></g></g><g fill="#000000" fill-opacity="1"><g transform="translate(589.135402, 132.439558)"><g><path d="M -7.269531 -73.972656 L -7.269531 -76.789062 L -5.074219 -76.90625 C -2.183594 -77.0625 0.933594 -77.59375 4.28125 -78.5 C 7.683594 -79.421875 11.050781 -80.582031 14.375 -81.984375 C 17.75 -83.40625 20.914062 -84.871094 23.878906 -86.371094 C 26.835938 -87.871094 29.324219 -89.226562 31.339844 -90.433594 L 34.851562 -92.542969 L 34.851562 -59.996094 L 32.535156 -59.996094 L 30.457031 -61.03125 L 43.398438 -86.914062 L 44.03125 -87.261719 C 45.804688 -88.238281 47.6875 -89.054688 49.675781 -89.71875 C 51.769531 -90.417969 54.09375 -90.765625 56.65625 -90.765625 C 65.132812 -90.765625 71.867188 -88.25 76.859375 -83.214844 C 81.839844 -78.183594 84.332031 -70.691406 84.332031 -60.738281 L 84.332031 -15.460938 C 84.332031 -12.597656 84.683594 -9.753906 85.378906 -6.925781 C 86.003906 -4.386719 86.839844 -2.65625 87.878906 -1.738281 L 92.476562 2.320312 L 46.191406 2.320312 L 50.789062 -1.738281 C 51.832031 -2.660156 52.664062 -4.367188 53.292969 -6.871094 C 53.988281 -9.65625 54.335938 -12.476562 54.335938 -15.339844 L 54.335938 -54.550781 C 54.335938 -57.886719 53.519531 -60.402344 51.890625 -62.097656 C 50.285156 -63.769531 48.285156 -64.601562 45.894531 -64.601562 C 42.742188 -64.601562 40.367188 -63.644531 38.769531 -61.726562 C 36.902344 -59.488281 35.5625 -57.070312 34.746094 -54.476562 L 32.535156 -55.171875 L 34.851562 -55.171875 L 34.851562 -15.460938 C 34.851562 -12.597656 35.203125 -9.753906 35.898438 -6.925781 C 36.523438 -4.386719 37.359375 -2.65625 38.398438 -1.738281 L 42.996094 2.320312 L -3.289062 2.320312 L 1.308594 -1.738281 C 2.351562 -2.660156 3.183594 -4.367188 3.8125 -6.871094 C 4.507812 -9.65625 4.855469 -12.476562 4.855469 -15.339844 L 4.855469 -56.285156 C 4.855469 -57.125 4.777344 -58.457031 4.617188 -60.289062 C 4.46875 -61.984375 4.058594 -63.769531 3.382812 -65.640625 C 2.773438 -67.335938 1.789062 -68.796875 0.425781 -70.023438 C -0.78125 -71.109375 -2.574219 -71.652344 -4.949219 -71.652344 L -7.269531 -71.652344 Z M -2.628906 -73.972656 L -4.949219 -73.972656 L -4.949219 -76.292969 C -1.386719 -76.292969 1.441406 -75.351562 3.53125 -73.46875 C 5.46875 -71.726562 6.875 -69.640625 7.75 -67.210938 C 8.558594 -64.960938 9.054688 -62.789062 9.238281 -60.691406 C 9.410156 -58.726562 9.496094 -57.257812 9.496094 -56.285156 L 9.496094 -15.339844 C 9.496094 -12.097656 9.101562 -8.898438 8.3125 -5.746094 C 7.453125 -2.3125 6.140625 0.183594 4.378906 1.738281 L 2.84375 0 L 2.84375 -2.320312 L 36.863281 -2.320312 L 36.863281 0 L 35.328125 1.738281 C 33.5625 0.183594 32.253906 -2.335938 31.394531 -5.816406 C 30.605469 -9.007812 30.214844 -12.222656 30.214844 -15.460938 L 30.214844 -55.527344 L 30.320312 -55.867188 C 31.320312 -59.042969 32.945312 -61.988281 35.203125 -64.695312 C 37.730469 -67.726562 41.292969 -69.242188 45.894531 -69.242188 C 49.601562 -69.242188 52.714844 -67.933594 55.234375 -65.3125 C 57.726562 -62.71875 58.972656 -59.132812 58.972656 -54.550781 L 58.972656 -15.339844 C 58.972656 -12.097656 58.582031 -8.898438 57.792969 -5.746094 C 56.933594 -2.3125 55.621094 0.183594 53.859375 1.738281 L 52.324219 0 L 52.324219 -2.320312 L 86.34375 -2.320312 L 86.34375 0 L 84.808594 1.738281 C 83.042969 0.183594 81.734375 -2.335938 80.875 -5.816406 C 80.085938 -9.007812 79.695312 -12.222656 79.695312 -15.460938 L 79.695312 -60.738281 C 79.695312 -69.417969 77.648438 -75.824219 73.5625 -79.949219 C 69.480469 -84.066406 63.84375 -86.125 56.65625 -86.125 C 54.597656 -86.125 52.757812 -85.855469 51.140625 -85.316406 C 49.417969 -84.742188 47.792969 -84.035156 46.269531 -83.195312 L 45.152344 -85.230469 L 47.226562 -84.191406 L 34.609375 -58.957031 L 30.214844 -59.996094 L 30.214844 -88.445312 L 32.535156 -88.445312 L 33.726562 -86.457031 C 31.617188 -85.191406 29.035156 -83.785156 25.972656 -82.234375 C 22.914062 -80.683594 19.652344 -79.175781 16.179688 -77.710938 C 12.660156 -76.226562 9.097656 -74.996094 5.492188 -74.023438 C 1.828125 -73.03125 -1.609375 -72.449219 -4.824219 -72.273438 L -4.949219 -74.589844 L -2.628906 -74.589844 Z M -2.628906 -73.972656 "/></g></g></g><g fill="#000000" fill-opacity="1"><g transform="translate(677.942769, 132.439558)"><g><path d="M -7.269531 -73.972656 L -7.269531 -76.789062 L -5.074219 -76.90625 C -2.183594 -77.0625 0.933594 -77.59375 4.28125 -78.5 C 7.683594 -79.421875 11.050781 -80.582031 14.375 -81.984375 C 17.75 -83.40625 20.914062 -84.871094 23.878906 -86.371094 C 26.835938 -87.871094 29.324219 -89.226562 31.339844 -90.433594 L 34.851562 -92.542969 L 34.851562 -59.996094 L 32.535156 -59.996094 L 30.457031 -61.03125 L 43.398438 -86.914062 L 44.03125 -87.261719 C 45.804688 -88.238281 47.6875 -89.054688 49.675781 -89.71875 C 51.769531 -90.417969 54.09375 -90.765625 56.65625 -90.765625 C 65.132812 -90.765625 71.867188 -88.25 76.859375 -83.214844 C 81.839844 -78.183594 84.332031 -70.691406 84.332031 -60.738281 L 84.332031 -15.460938 C 84.332031 -12.597656 84.683594 -9.753906 85.378906 -6.925781 C 86.003906 -4.386719 86.839844 -2.65625 87.878906 -1.738281 L 92.476562 2.320312 L 46.191406 2.320312 L 50.789062 -1.738281 C 51.832031 -2.660156 52.664062 -4.367188 53.292969 -6.871094 C 53.988281 -9.65625 54.335938 -12.476562 54.335938 -15.339844 L 54.335938 -54.550781 C 54.335938 -57.886719 53.519531 -60.402344 51.890625 -62.097656 C 50.285156 -63.769531 48.285156 -64.601562 45.894531 -64.601562 C 42.742188 -64.601562 40.367188 -63.644531 38.769531 -61.726562 C 36.902344 -59.488281 35.5625 -57.070312 34.746094 -54.476562 L 32.535156 -55.171875 L 34.851562 -55.171875 L 34.851562 -15.460938 C 34.851562 -12.597656 35.203125 -9.753906 35.898438 -6.925781 C 36.523438 -4.386719 37.359375 -2.65625 38.398438 -1.738281 L 42.996094 2.320312 L -3.289062 2.320312 L 1.308594 -1.738281 C 2.351562 -2.660156 3.183594 -4.367188 3.8125 -6.871094 C 4.507812 -9.65625 4.855469 -12.476562 4.855469 -15.339844 L 4.855469 -56.285156 C 4.855469 -57.125 4.777344 -58.457031 4.617188 -60.289062 C 4.46875 -61.984375 4.058594 -63.769531 3.382812 -65.640625 C 2.773438 -67.335938 1.789062 -68.796875 0.425781 -70.023438 C -0.78125 -71.109375 -2.574219 -71.652344 -4.949219 -71.652344 L -7.269531 -71.652344 Z M -2.628906 -73.972656 L -4.949219 -73.972656 L -4.949219 -76.292969 C -1.386719 -76.292969 1.441406 -75.351562 3.53125 -73.46875 C 5.46875 -71.726562 6.875 -69.640625 7.75 -67.210938 C 8.558594 -64.960938 9.054688 -62.789062 9.238281 -60.691406 C 9.410156 -58.726562 9.496094 -57.257812 9.496094 -56.285156 L 9.496094 -15.339844 C 9.496094 -12.097656 9.101562 -8.898438 8.3125 -5.746094 C 7.453125 -2.3125 6.140625 0.183594 4.378906 1.738281 L 2.84375 0 L 2.84375 -2.320312 L 36.863281 -2.320312 L 36.863281 0 L 35.328125 1.738281 C 33.5625 0.183594 32.253906 -2.335938 31.394531 -5.816406 C 30.605469 -9.007812 30.214844 -12.222656 30.214844 -15.460938 L 30.214844 -55.527344 L 30.320312 -55.867188 C 31.320312 -59.042969 32.945312 -61.988281 35.203125 -64.695312 C 37.730469 -67.726562 41.292969 -69.242188 45.894531 -69.242188 C 49.601562 -69.242188 52.714844 -67.933594 55.234375 -65.3125 C 57.726562 -62.71875 58.972656 -59.132812 58.972656 -54.550781 L 58.972656 -15.339844 C 58.972656 -12.097656 58.582031 -8.898438 57.792969 -5.746094 C 56.933594 -2.3125 55.621094 0.183594 53.859375 1.738281 L 52.324219 0 L 52.324219 -2.320312 L 86.34375 -2.320312 L 86.34375 0 L 84.808594 1.738281 C 83.042969 0.183594 81.734375 -2.335938 80.875 -5.816406 C 80.085938 -9.007812 79.695312 -12.222656 79.695312 -15.460938 L 79.695312 -60.738281 C 79.695312 -69.417969 77.648438 -75.824219 73.5625 -79.949219 C 69.480469 -84.066406 63.84375 -86.125 56.65625 -86.125 C 54.597656 -86.125 52.757812 -85.855469 51.140625 -85.316406 C 49.417969 -84.742188 47.792969 -84.035156 46.269531 -83.195312 L 45.152344 -85.230469 L 47.226562 -84.191406 L 34.609375 -58.957031 L 30.214844 -59.996094 L 30.214844 -88.445312 L 32.535156 -88.445312 L 33.726562 -86.457031 C 31.617188 -85.191406 29.035156 -83.785156 25.972656 -82.234375 C 22.914062 -80.683594 19.652344 -79.175781 16.179688 -77.710938 C 12.660156 -76.226562 9.097656 -74.996094 5.492188 -74.023438 C 1.828125 -73.03125 -1.609375 -72.449219 -4.824219 -72.273438 L -4.949219 -74.589844 L -2.628906 -74.589844 Z M -2.628906 -73.972656 "/></g></g></g><g fill="#000000" fill-opacity="1"><g transform="translate(766.750135, 132.439558)"><g><path d="M 46.511719 4.175781 C 38.925781 4.175781 32.285156 2.914062 26.585938 0.390625 C 20.855469 -2.148438 16.125 -5.632812 12.390625 -10.074219 C 8.6875 -14.472656 5.921875 -19.539062 4.097656 -25.273438 C 2.292969 -30.945312 1.390625 -36.953125 1.390625 -43.296875 C 1.390625 -49.648438 2.339844 -55.664062 4.230469 -61.347656 C 6.144531 -67.085938 9.039062 -72.15625 12.917969 -76.558594 C 16.816406 -80.980469 21.664062 -84.457031 27.460938 -86.984375 C 33.242188 -89.503906 40.003906 -90.765625 47.75 -90.765625 C 54.414062 -90.765625 60.273438 -89.371094 65.324219 -86.578125 C 70.367188 -83.792969 74.296875 -80.191406 77.105469 -75.773438 C 79.945312 -71.3125 81.363281 -66.671875 81.363281 -61.851562 C 81.363281 -57.320312 80.171875 -52.941406 77.789062 -48.710938 C 75.367188 -44.417969 71.441406 -40.945312 66.019531 -38.304688 C 60.710938 -35.714844 53.628906 -34.417969 44.78125 -34.417969 L 30.304688 -34.417969 L 30.304688 -36.738281 L 32.570312 -37.25 C 33.441406 -33.390625 35.164062 -30.390625 37.730469 -28.253906 C 40.269531 -26.136719 43.566406 -25.082031 47.625 -25.082031 C 50.269531 -25.082031 52.507812 -25.597656 54.335938 -26.636719 C 56.300781 -27.746094 57.921875 -29.011719 59.195312 -30.433594 C 60.515625 -31.902344 61.421875 -33.09375 61.910156 -34.003906 L 63.777344 -37.472656 L 65.90625 -34.15625 C 67.890625 -31.058594 70.238281 -28.054688 72.949219 -25.144531 C 75.707031 -22.183594 78.339844 -19.570312 80.847656 -17.308594 L 82.292969 -16 L 81.257812 -14.351562 C 77.394531 -8.210938 72.324219 -3.578125 66.035156 -0.457031 C 59.816406 2.628906 53.304688 4.175781 46.511719 4.175781 Z M 46.511719 -0.464844 C 52.582031 -0.464844 58.402344 -1.847656 63.972656 -4.613281 C 69.480469 -7.347656 73.929688 -11.417969 77.328125 -16.820312 L 79.292969 -15.585938 L 77.738281 -13.863281 C 75.132812 -16.21875 72.402344 -18.925781 69.554688 -21.984375 C 66.65625 -25.097656 64.136719 -28.320312 62 -31.652344 L 63.953125 -32.90625 L 65.996094 -31.804688 C 65.332031 -30.570312 64.214844 -29.082031 62.648438 -27.335938 C 61.035156 -25.539062 59.027344 -23.960938 56.621094 -22.597656 C 54.082031 -21.160156 51.082031 -20.441406 47.625 -20.441406 C 42.445312 -20.441406 38.15625 -21.859375 34.757812 -24.691406 C 31.386719 -27.5 29.148438 -31.34375 28.042969 -36.226562 L 27.402344 -39.058594 L 44.78125 -39.058594 C 52.917969 -39.058594 59.320312 -40.195312 63.988281 -42.472656 C 68.542969 -44.695312 71.796875 -47.535156 73.746094 -50.992188 C 75.730469 -54.511719 76.726562 -58.132812 76.726562 -61.851562 C 76.726562 -65.769531 75.546875 -69.582031 73.191406 -73.285156 C 70.804688 -77.035156 67.433594 -80.113281 63.078125 -82.519531 C 58.726562 -84.925781 53.617188 -86.125 47.75 -86.125 C 40.648438 -86.125 34.503906 -84.996094 29.316406 -82.730469 C 24.148438 -80.476562 19.839844 -77.398438 16.398438 -73.492188 C 12.9375 -69.5625 10.347656 -65.023438 8.632812 -59.878906 C 6.898438 -54.675781 6.03125 -49.148438 6.03125 -43.296875 C 6.03125 -37.433594 6.859375 -31.894531 8.519531 -26.679688 C 10.15625 -21.53125 12.632812 -16.988281 15.9375 -13.058594 C 19.214844 -9.167969 23.386719 -6.101562 28.460938 -3.851562 C 33.566406 -1.59375 39.582031 -0.464844 46.511719 -0.464844 Z M 29.632812 -40.378906 C 33.378906 -41.082031 37.007812 -42.3125 40.527344 -44.070312 C 43.960938 -45.789062 46.796875 -47.933594 49.027344 -50.503906 C 51.082031 -52.875 52.109375 -55.542969 52.109375 -58.511719 C 52.109375 -59.652344 51.683594 -60.800781 50.828125 -61.957031 C 50.136719 -62.894531 48.863281 -63.367188 47.007812 -63.367188 C 45.0625 -63.367188 42.9375 -62.640625 40.636719 -61.1875 C 38.285156 -59.703125 36.253906 -57.460938 34.550781 -54.457031 C 32.855469 -51.472656 32.007812 -47.753906 32.007812 -43.296875 C 32.007812 -41.597656 32.121094 -39.980469 32.351562 -38.445312 L 30.058594 -38.101562 Z M 30.488281 -35.820312 L 28.121094 -35.375 L 27.765625 -37.753906 C 27.5 -39.519531 27.367188 -41.367188 27.367188 -43.296875 C 27.367188 -48.570312 28.417969 -53.054688 30.515625 -56.75 C 32.605469 -60.425781 35.152344 -63.214844 38.160156 -65.109375 C 41.21875 -67.039062 44.167969 -68.003906 47.007812 -68.003906 C 50.425781 -68.003906 52.945312 -66.90625 54.5625 -64.710938 C 56.019531 -62.734375 56.746094 -60.667969 56.746094 -58.511719 C 56.746094 -54.386719 55.34375 -50.707031 52.53125 -47.464844 C 49.898438 -44.429688 46.585938 -41.914062 42.601562 -39.921875 C 38.695312 -37.96875 34.65625 -36.601562 30.488281 -35.820312 Z M 30.488281 -35.820312 "/></g></g></g><g fill="#000000" fill-opacity="1"><g transform="translate(848.507341, 132.439558)"><g><path d="M -5.074219 -76.90625 C -2.183594 -77.0625 0.933594 -77.59375 4.28125 -78.5 C 7.683594 -79.421875 11.050781 -80.582031 14.375 -81.984375 C 17.75 -83.40625 20.914062 -84.871094 23.878906 -86.371094 C 26.835938 -87.871094 29.324219 -89.226562 31.339844 -90.433594 L 34.851562 -92.542969 L 34.851562 -64.199219 L 32.535156 -64.199219 L 30.265625 -64.683594 C 30.875 -67.566406 31.855469 -70.503906 33.199219 -73.5 C 34.5625 -76.53125 36.273438 -79.316406 38.339844 -81.867188 C 40.460938 -84.488281 42.972656 -86.613281 45.867188 -88.242188 C 48.859375 -89.925781 52.167969 -90.765625 55.789062 -90.765625 C 58.5625 -90.765625 61.265625 -90.234375 63.894531 -89.175781 C 66.632812 -88.070312 68.546875 -86.8125 69.625 -85.40625 L 70.355469 -84.460938 L 70.007812 -83.316406 C 68.863281 -79.5625 67.761719 -75.523438 66.699219 -71.195312 C 65.644531 -66.882812 64.789062 -62.699219 64.140625 -58.636719 L 63.101562 -52.140625 L 59.835938 -57.855469 C 59.105469 -59.128906 57.460938 -60.304688 54.894531 -61.378906 C 52.128906 -62.539062 49.292969 -63.117188 46.386719 -63.117188 C 42.289062 -63.117188 39.292969 -62.398438 37.398438 -60.960938 C 35.703125 -59.671875 34.851562 -57.660156 34.851562 -54.921875 L 34.851562 -15.460938 C 34.851562 -12.597656 35.203125 -9.753906 35.898438 -6.925781 C 36.523438 -4.386719 37.359375 -2.65625 38.398438 -1.738281 L 42.996094 2.320312 L -3.289062 2.320312 L 1.308594 -1.738281 C 2.351562 -2.660156 3.183594 -4.367188 3.8125 -6.871094 C 4.507812 -9.65625 4.855469 -12.476562 4.855469 -15.339844 L 4.855469 -56.285156 C 4.855469 -57.125 4.777344 -58.457031 4.617188 -60.289062 C 4.46875 -61.984375 4.058594 -63.769531 3.382812 -65.640625 C 2.773438 -67.335938 1.789062 -68.796875 0.425781 -70.023438 C -0.78125 -71.109375 -2.574219 -71.652344 -4.949219 -71.652344 L -7.269531 -71.652344 L -7.269531 -76.789062 Z M -4.824219 -72.273438 L -4.949219 -74.589844 L -2.628906 -74.589844 L -2.628906 -73.972656 L -4.949219 -73.972656 L -4.949219 -76.292969 C -1.386719 -76.292969 1.441406 -75.351562 3.53125 -73.46875 C 5.46875 -71.726562 6.875 -69.640625 7.75 -67.210938 C 8.558594 -64.960938 9.054688 -62.789062 9.238281 -60.691406 C 9.410156 -58.726562 9.496094 -57.257812 9.496094 -56.285156 L 9.496094 -15.339844 C 9.496094 -12.097656 9.101562 -8.898438 8.3125 -5.746094 C 7.453125 -2.3125 6.140625 0.183594 4.378906 1.738281 L 2.84375 0 L 2.84375 -2.320312 L 36.863281 -2.320312 L 36.863281 0 L 35.328125 1.738281 C 33.5625 0.183594 32.253906 -2.335938 31.394531 -5.816406 C 30.605469 -9.007812 30.214844 -12.222656 30.214844 -15.460938 L 30.214844 -54.921875 C 30.214844 -59.195312 31.675781 -62.441406 34.59375 -64.65625 C 37.316406 -66.722656 41.25 -67.757812 46.386719 -67.757812 C 49.914062 -67.757812 53.347656 -67.058594 56.683594 -65.660156 C 60.222656 -64.179688 62.613281 -62.34375 63.863281 -60.15625 L 61.851562 -59.003906 L 59.558594 -59.371094 C 60.230469 -63.558594 61.109375 -67.867188 62.195312 -72.300781 C 63.277344 -76.710938 64.402344 -80.832031 65.570312 -84.667969 L 67.789062 -83.992188 L 65.949219 -82.578125 C 65.382812 -83.316406 64.117188 -84.082031 62.15625 -84.871094 C 60.085938 -85.707031 57.960938 -86.125 55.789062 -86.125 C 52.976562 -86.125 50.429688 -85.484375 48.144531 -84.199219 C 45.761719 -82.859375 43.695312 -81.105469 41.941406 -78.945312 C 40.132812 -76.710938 38.628906 -74.261719 37.433594 -71.601562 C 36.222656 -68.90625 35.34375 -66.277344 34.800781 -63.71875 L 30.214844 -64.199219 L 30.214844 -88.445312 L 32.535156 -88.445312 L 33.726562 -86.457031 C 31.617188 -85.191406 29.035156 -83.785156 25.972656 -82.234375 C 22.914062 -80.683594 19.652344 -79.175781 16.179688 -77.710938 C 12.660156 -76.226562 9.097656 -74.996094 5.492188 -74.023438 C 1.828125 -73.03125 -1.609375 -72.449219 -4.824219 -72.273438 Z M -4.824219 -72.273438 "/></g></g></g><g fill="#000000" fill-opacity="1"><g transform="translate(921.272822, 132.439558)"><g/></g></g></g></g><g transform="matrix(1, 0, 0, 1, 484, 161)"><g clip-path="url(#f13080d54d)"><g fill="#000000" fill-opacity="1"><g transform="translate(0.532501, 194.243008)"><g><path d="M 7.109375 -148.03125 L 67.6875 -148.03125 C 72.71875 -148.03125 76.710938 -147.992188 79.671875 -147.921875 C 82.628906 -147.847656 84.992188 -147.695312 86.765625 -147.46875 C 88.546875 -147.25 89.953125 -146.914062 90.984375 -146.46875 C 92.023438 -146.03125 93.140625 -145.441406 94.328125 -144.703125 C 100.242188 -140.859375 103.203125 -132.425781 103.203125 -119.40625 L 103.203125 -109.859375 C 103.203125 -106.160156 103.164062 -103.050781 103.09375 -100.53125 C 103.019531 -98.019531 102.832031 -95.875 102.53125 -94.09375 C 102.238281 -92.320312 101.832031 -90.769531 101.3125 -89.4375 C 100.789062 -88.101562 100.085938 -86.773438 99.203125 -85.453125 C 97.429688 -82.484375 95.25 -80.296875 92.65625 -78.890625 C 90.070312 -77.492188 86.335938 -76.5 81.453125 -75.90625 C 85.890625 -74.570312 89.515625 -73.203125 92.328125 -71.796875 C 95.140625 -70.390625 97.359375 -68.613281 98.984375 -66.46875 C 100.609375 -64.320312 101.71875 -61.769531 102.3125 -58.8125 C 102.90625 -55.851562 103.203125 -52.15625 103.203125 -47.71875 L 103.203125 -24.859375 C 103.203125 -15.828125 104.238281 -7.539062 106.3125 0 L 66.578125 0 C 65.398438 -3.84375 64.585938 -7.539062 64.140625 -11.09375 C 63.691406 -14.644531 63.46875 -19.234375 63.46875 -24.859375 L 63.46875 -44.609375 C 63.46875 -49.347656 62.578125 -52.75 60.796875 -54.8125 C 59.023438 -56.882812 56.070312 -57.921875 51.9375 -57.921875 L 46.828125 -57.921875 L 46.828125 0 L 7.109375 0 Z M 52.375 -90.109375 C 56.957031 -90.109375 59.988281 -90.921875 61.46875 -92.546875 C 62.957031 -94.171875 63.703125 -97.570312 63.703125 -102.75 C 63.703125 -107.632812 62.882812 -111.035156 61.25 -112.953125 C 59.625 -114.878906 56.664062 -115.84375 52.375 -115.84375 L 46.828125 -115.84375 L 46.828125 -90.109375 Z M 52.375 -90.109375 "/></g></g></g><g fill="#000000" fill-opacity="1"><g transform="translate(110.393352, 194.243008)"><g><path d="M 32.84375 0 C 26.1875 0 21.265625 -0.332031 18.078125 -1 C 14.898438 -1.664062 12.351562 -2.957031 10.4375 -4.875 C 9.394531 -5.914062 8.578125 -6.988281 7.984375 -8.09375 C 7.398438 -9.207031 6.921875 -10.648438 6.546875 -12.421875 C 6.179688 -14.203125 5.957031 -16.535156 5.875 -19.421875 C 5.800781 -22.304688 5.765625 -26.039062 5.765625 -30.625 L 5.765625 -90.765625 C 5.765625 -99.054688 7.539062 -104.976562 11.09375 -108.53125 C 12.875 -110.300781 15.613281 -111.59375 19.3125 -112.40625 C 23.007812 -113.21875 28.1875 -113.625 34.84375 -113.625 L 62.59375 -113.625 C 74.425781 -113.625 82.488281 -111.925781 86.78125 -108.53125 C 87.957031 -107.644531 88.878906 -106.753906 89.546875 -105.859375 C 90.210938 -104.972656 90.726562 -103.828125 91.09375 -102.421875 C 91.46875 -101.015625 91.726562 -99.273438 91.875 -97.203125 C 92.03125 -95.128906 92.109375 -92.46875 92.109375 -89.21875 L 92.109375 -42.609375 L 41.0625 -42.609375 L 41.0625 -36.625 C 41.0625 -32.769531 41.910156 -30.175781 43.609375 -28.84375 C 45.304688 -27.519531 48.597656 -26.859375 53.484375 -26.859375 L 92.109375 -26.859375 L 92.109375 0 Z M 56.8125 -64.140625 L 56.8125 -74.34375 C 56.8125 -78.195312 56.109375 -81.234375 54.703125 -83.453125 C 53.296875 -85.671875 51.335938 -86.78125 48.828125 -86.78125 C 46.304688 -86.78125 44.378906 -85.671875 43.046875 -83.453125 C 41.722656 -81.234375 41.0625 -78.195312 41.0625 -74.34375 L 41.0625 -64.140625 Z M 56.8125 -64.140625 "/></g></g></g><g fill="#000000" fill-opacity="1"><g transform="translate(207.603547, 194.243008)"><g><path d="M 6.4375 -113.625 L 41.71875 -113.625 L 41.71875 -101.203125 C 43.050781 -103.867188 44.347656 -106.050781 45.609375 -107.75 C 46.867188 -109.445312 48.203125 -110.773438 49.609375 -111.734375 C 51.015625 -112.703125 52.640625 -113.367188 54.484375 -113.734375 C 56.335938 -114.109375 58.59375 -114.296875 61.25 -114.296875 L 68.359375 -114.296875 C 74.273438 -114.296875 78.710938 -113.851562 81.671875 -112.96875 C 84.628906 -112.082031 86.921875 -110.453125 88.546875 -108.078125 C 89.878906 -106.003906 90.914062 -102.894531 91.65625 -98.75 C 92.394531 -94.613281 92.765625 -89.957031 92.765625 -84.78125 L 92.765625 -23.96875 C 92.765625 -18.488281 92.429688 -14.378906 91.765625 -11.640625 C 91.097656 -8.910156 89.878906 -6.65625 88.109375 -4.875 C 84.554688 -1.332031 79.523438 0.4375 73.015625 0.4375 L 65.46875 0.4375 C 62.507812 0.4375 60.03125 0.328125 58.03125 0.109375 C 56.039062 -0.109375 54.265625 -0.550781 52.703125 -1.21875 C 51.148438 -1.882812 49.742188 -2.804688 48.484375 -3.984375 C 47.234375 -5.171875 45.867188 -6.726562 44.390625 -8.65625 L 41.71875 -11.984375 L 41.71875 36.390625 L 6.4375 36.390625 Z M 57.484375 -74.34375 C 57.484375 -82.925781 54.816406 -87.21875 49.484375 -87.21875 C 44.304688 -87.21875 41.71875 -82.925781 41.71875 -74.34375 L 41.71875 -39.28125 C 41.71875 -30.695312 44.382812 -26.40625 49.71875 -26.40625 C 54.894531 -26.40625 57.484375 -30.695312 57.484375 -39.28125 Z M 57.484375 -74.34375 "/></g></g></g><g fill="#000000" fill-opacity="1"><g transform="translate(306.145501, 194.243008)"><g><path d="M 30.1875 0.4375 C 23.820312 0.4375 19.269531 0.03125 16.53125 -0.78125 C 13.789062 -1.59375 11.609375 -3.179688 9.984375 -5.546875 C 8.648438 -7.617188 7.613281 -10.722656 6.875 -14.859375 C 6.132812 -19.003906 5.765625 -23.742188 5.765625 -29.078125 L 5.765625 -89.65625 C 5.765625 -95.132812 6.097656 -99.28125 6.765625 -102.09375 C 7.429688 -104.90625 8.65625 -107.195312 10.4375 -108.96875 C 13.976562 -112.519531 19.003906 -114.296875 25.515625 -114.296875 L 33.0625 -114.296875 C 35.875 -114.296875 38.28125 -114.144531 40.28125 -113.84375 C 42.28125 -113.550781 44.054688 -113.070312 45.609375 -112.40625 C 47.160156 -111.738281 48.601562 -110.8125 49.9375 -109.625 C 51.269531 -108.445312 52.675781 -106.894531 54.15625 -104.96875 L 56.8125 -101.640625 L 56.8125 -113.625 L 92.109375 -113.625 L 92.109375 0 L 56.8125 0 L 56.8125 -12.421875 C 55.332031 -9.617188 54 -7.363281 52.8125 -5.65625 C 51.632812 -3.957031 50.34375 -2.660156 48.9375 -1.765625 C 47.53125 -0.878906 45.9375 -0.289062 44.15625 0 C 42.382812 0.289062 40.09375 0.4375 37.28125 0.4375 Z M 56.8125 -75.015625 C 56.8125 -83.597656 54.148438 -87.890625 48.828125 -87.890625 C 43.648438 -87.890625 41.0625 -83.597656 41.0625 -75.015625 L 41.0625 -39.953125 C 41.0625 -31.367188 43.722656 -27.078125 49.046875 -27.078125 C 54.222656 -27.078125 56.8125 -31.367188 56.8125 -39.953125 Z M 56.8125 -75.015625 "/></g></g></g><g fill="#000000" fill-opacity="1"><g transform="translate(404.687454, 194.243008)"><g><path d="M 6.4375 -113.625 L 41.71875 -113.625 L 41.71875 0 L 6.4375 0 Z M 6.4375 -148.03125 L 41.71875 -148.03125 L 41.71875 -123.84375 L 6.4375 -123.84375 Z M 6.4375 -148.03125 "/></g></g><g transform="translate(452.848594, 194.243008)"><g><path d="M 6.4375 -113.625 L 41.71875 -113.625 L 41.71875 -98.984375 C 45.125 -104.609375 48.488281 -108.566406 51.8125 -110.859375 C 55.144531 -113.148438 59.398438 -114.296875 64.578125 -114.296875 C 65.765625 -114.296875 66.765625 -114.222656 67.578125 -114.078125 C 68.390625 -113.929688 69.460938 -113.5625 70.796875 -112.96875 L 68.140625 -74.578125 C 65.472656 -75.898438 63.140625 -77.003906 61.140625 -77.890625 C 59.140625 -78.785156 57.175781 -79.601562 55.25 -80.34375 C 53.332031 -81.082031 51.300781 -81.820312 49.15625 -82.5625 C 47.007812 -83.300781 44.53125 -84.113281 41.71875 -85 L 41.71875 0 L 6.4375 0 Z M 6.4375 -113.625 "/></g></g></g><g fill="#000000" fill-opacity="1"><g transform="translate(526.089023, 194.243008)"><g><path d="M 4.65625 -26.859375 L 39.5 -26.859375 L 39.5 -41.28125 L 22.1875 -41.28125 C 17.894531 -41.28125 14.675781 -41.613281 12.53125 -42.28125 C 10.394531 -42.945312 8.734375 -44.09375 7.546875 -45.71875 C 6.953125 -46.601562 6.46875 -47.414062 6.09375 -48.15625 C 5.726562 -48.894531 5.429688 -49.929688 5.203125 -51.265625 C 4.984375 -52.597656 4.835938 -54.410156 4.765625 -56.703125 C 4.691406 -58.992188 4.65625 -62.210938 4.65625 -66.359375 L 4.65625 -93.21875 C 4.65625 -98.394531 5.320312 -102.390625 6.65625 -105.203125 C 7.988281 -108.015625 10.132812 -110.160156 13.09375 -111.640625 C 14.570312 -112.378906 16.492188 -112.894531 18.859375 -113.1875 C 21.234375 -113.476562 24.414062 -113.625 28.40625 -113.625 L 71.90625 -113.625 L 71.90625 -86.78125 L 39.953125 -86.78125 L 39.953125 -73.46875 L 52.375 -73.46875 C 58 -73.46875 62.398438 -72.945312 65.578125 -71.90625 C 68.765625 -70.875 71.171875 -69.097656 72.796875 -66.578125 C 73.390625 -65.546875 73.90625 -64.472656 74.34375 -63.359375 C 74.789062 -62.253906 75.125 -60.847656 75.34375 -59.140625 C 75.570312 -57.441406 75.722656 -55.222656 75.796875 -52.484375 C 75.867188 -49.742188 75.90625 -46.234375 75.90625 -41.953125 L 75.90625 -26.40625 C 75.90625 -24.78125 75.71875 -22.488281 75.34375 -19.53125 C 74.976562 -16.570312 74.644531 -14.351562 74.34375 -12.875 C 73.601562 -9.914062 72.015625 -7.25 69.578125 -4.875 C 67.140625 -2.507812 64.441406 -1.109375 61.484375 -0.671875 C 60.585938 -0.515625 59.398438 -0.398438 57.921875 -0.328125 C 56.441406 -0.253906 53.484375 -0.144531 49.046875 0 L 4.65625 0 Z M 4.65625 -26.859375 "/></g></g></g></g></g></g></g></g></g></g></g></svg>