<?xml version="1.0" standalone="no"?>
<!DOCTYPE svg PUBLIC "-//W3C//DTD SVG 20010904//EN"
 "http://www.w3.org/TR/2001/REC-SVG-20010904/DTD/svg10.dtd">
<svg version="1.0" xmlns="http://www.w3.org/2000/svg"
 width="32.000000pt" height="32.000000pt" viewBox="0 0 32.000000 32.000000"
 preserveAspectRatio="xMidYMid meet">
<g transform="translate(0.000000,32.000000) scale(0.050000,-0.050000)"
fill="#000000" stroke="none">
<path d="M344 610 c-21 -25 -20 -30 6 -30 18 0 27 -9 20 -20 -7 -11 2 -20 19
-20 32 0 40 -34 19 -88 -10 -27 -16 -26 -45 7 -24 27 -69 41 -163 48 l-130 10
110 -20 c155 -29 163 -32 174 -78 16 -61 86 8 86 84 0 63 56 80 98 30 18 -22
12 -35 -28 -61 -27 -18 -50 -47 -50 -63 0 -58 -94 -129 -169 -129 -39 0 -71 9
-71 20 0 19 29 28 70 21 11 -1 -7 20 -40 47 -53 45 -55 51 -20 53 31 2 28 7
-16 23 -66 24 -90 9 -55 -32 20 -25 13 -31 -43 -38 -64 -8 -63 -8 8 -7 41 1
81 -5 88 -13 8 -8 -4 -14 -27 -14 -24 0 -48 -9 -55 -20 -7 -11 7 -20 30 -20
59 0 41 -43 -31 -78 -36 -18 -48 -32 -32 -38 15 -5 53 10 84 34 67 49 99 53
99 14 0 -16 11 -33 25 -38 29 -11 -70 -54 -122 -54 -62 0 -109 -49 -94 -97 17
-55 38 -54 206 6 94 34 159 46 207 38 51 -8 80 -2 105 22 48 49 41 77 -16 63
-66 -17 -82 18 -26 57 38 27 40 35 15 51 -50 32 -95 23 -136 -29 -32 -41 -48
-46 -96 -33 l-58 15 78 37 c57 27 86 59 108 114 27 67 38 76 97 76 84 0 82 14
-12 95 -89 76 -179 99 -217 55z m178 -377 c-31 -38 -6 -93 41 -93 23 0 34 -9
26 -21 -8 -13 -43 -17 -86 -10 -51 9 -117 -3 -222 -38 -100 -35 -155 -45 -169
-31 -32 32 8 57 153 92 83 21 150 51 177 81 49 51 121 69 80 20z"/>
</g>
</svg>
